<svg id="Ñëîé_1" data-name="Ñëîé 1" xmlns="http://www.w3.org/2000/svg" viewBox="0 0 75.11 37.35">
  <defs>
    <style>
      .cls-1 {
        fill: #1d1d1b;
      }

      .cls-2 {
        fill: #fff;
      }
    </style>
  </defs>
  <title>gs-studio-logo-black</title>
  <rect class="cls-1" width="37.56" height="37.35"/>
  <rect class="cls-1" x="38.98" width="36.13" height="37.35"/>
  <path class="cls-2" d="M81.71,138.79v-0.47H77.54v0.47h0.68c0.42,0,.53.12,0.53,0.76v0.9a1.19,1.19,0,0,1-1.18,1.38c-1.3,0-2.28-1-2.28-3.83,0-3.33.91-4.08,2.17-4.08,0.79,0,2,.49,2.47,2.94h0.48l-0.18-3.41H79.8l-0.34,1a2.84,2.84,0,0,0-2.18-1c-2.46,0-4.05,1.87-4.05,4.66s1.85,4.35,4,4.35a3.08,3.08,0,0,0,2.41-1.25l0.62,1.27h0.47v-2.93c0-.64.11-0.76,0.53-0.76h0.43Z" transform="translate(-58.56 -119.09)"/>
  <path class="cls-2" d="M119,139.72c0-1.7-1.42-2.26-2.77-2.65s-2.41-.71-2.41-1.79a1.38,1.38,0,0,1,1.5-1.38,2.88,2.88,0,0,1,2.8,2.72h0.47l-0.14-3.18h-0.37l-0.31.92a3.3,3.3,0,0,0-2.44-.94c-1.74,0-3,.9-3,2.66s1.37,2.27,2.74,2.69c1.2,0.36,2.32.71,2.32,1.82,0,0.94-.85,1.36-1.87,1.36a3.2,3.2,0,0,1-3.06-3H112l0.22,3.45h0.37l0.3-1a3.5,3.5,0,0,0,2.59,1c1.68,0,3.53-.89,3.53-2.72" transform="translate(-58.56 -119.09)"/>
</svg>
