<svg id="Layer_1" data-name="Layer 1" xmlns="http://www.w3.org/2000/svg" viewBox="0 0 45.12 49.34">
  <defs>
    <style>
      .cls-1 {
        fill: none;
        stroke: #d60000;
        stroke-miterlimit: 10;
        stroke-width: 2px;
      }

      .cls-2 {
        fill: #d60000;
      }

      .cls-3 {
        fill: #fff;
      }
    </style>
  </defs>
  <title>icon-pdf</title>
  <g>
    <path class="cls-1" d="M96.33,2548.39H83.61v-12.72m0,0L61,2535.6v47.33H96.33v-34.54Z" transform="translate(-60 -2534.59)"/>
    <rect class="cls-2" x="17.37" y="25.17" width="27.75" height="13.42"/>
    <g>
      <path class="cls-3" d="M83.28,2563.27h-0.4l-0.3,0v3.36l0.15,0h0.59a2.33,2.33,0,0,0,.69-0.1,1.49,1.49,0,0,0,.57-0.32,1.58,1.58,0,0,0,.39-0.55,2,2,0,0,0,.14-0.8,1.61,1.61,0,0,0-.48-1.28,2,2,0,0,0-1.33-.43m-0.71,6.26a3.44,3.44,0,0,1,.53.1l0.47,0.15v0.3H80.73v-0.3a2,2,0,0,1,.43-0.16l0.43-.09v-6.16a3.26,3.26,0,0,1-.45-0.11l-0.41-.15v-0.3h0.93c0.28,0,.58,0,0.9,0s0.64,0,.93,0a4.54,4.54,0,0,1,1,.11,2.49,2.49,0,0,1,.87.37,2,2,0,0,1,.61.69,2.23,2.23,0,0,1,.23,1.07,2.16,2.16,0,0,1-.24,1,2.1,2.1,0,0,1-.64.72,2.76,2.76,0,0,1-.91.41,4.27,4.27,0,0,1-1,.13H83l-0.24,0-0.17,0v2.29Z" transform="translate(-60 -2534.59)"/>
      <path class="cls-3" d="M90.65,2563.27H90.14a2.22,2.22,0,0,0-.4,0v6.29l0.19,0h0.79a2.51,2.51,0,0,0,1.22-.27,2.34,2.34,0,0,0,.82-0.72,3.1,3.1,0,0,0,.46-1,5.21,5.21,0,0,0,.14-1.25,4.2,4.2,0,0,0-.14-1.05,3,3,0,0,0-.46-1,2.5,2.5,0,0,0-.84-0.74,2.57,2.57,0,0,0-1.27-.29m-2.7,6.81v-0.3a3.39,3.39,0,0,1,.85-0.25v-6.16l-0.46-.12-0.39-.14v-0.3h1.47l0.49,0,0.49,0,0.39,0a3.69,3.69,0,0,1,2.72.95,3.61,3.61,0,0,1,.95,2.68,4.78,4.78,0,0,1-.23,1.52,3.22,3.22,0,0,1-.71,1.21,3.29,3.29,0,0,1-1.21.8,4.67,4.67,0,0,1-1.73.29l-0.35,0-0.42,0-0.44,0-0.42,0H88Z" transform="translate(-60 -2534.59)"/>
      <path class="cls-3" d="M98.09,2569.54a3.49,3.49,0,0,1,.89.25v0.3H96.35v-0.3l0.36-.15,0.38-.1v-6.16l-0.42-.12-0.33-.14v-0.3h4.87c0,0.27,0,.55,0,0.83s0,0.57-.08.85h-0.27l-0.43-1.14H98.09v3h1.8l0.43-.77h0.24c0,0.16,0,.33,0,0.5s0,0.36,0,.54,0,0.38,0,.55,0,0.35,0,.51h-0.24l-0.43-.8h-1.8v2.68Z" transform="translate(-60 -2534.59)"/>
    </g>
  </g>
</svg>
