<svg id="Layer_1" data-name="Layer 1" xmlns="http://www.w3.org/2000/svg" viewBox="0 0 19.82 14.53">
  <defs>
    <style>
      .cls-1 {
        fill: #41558c;
      }
    </style>
  </defs>
  <title>icon-ytube</title>
  <path class="cls-1" d="M782.64,20.4a4.6,4.6,0,0,0-.79-2.05,2.78,2.78,0,0,0-2-.87c-2.77-.21-6.93-0.21-6.93-0.21h0s-4.16,0-6.93.21a2.77,2.77,0,0,0-2,.87,4.59,4.59,0,0,0-.79,2.05,32.44,32.44,0,0,0-.2,3.34v1.57a32.45,32.45,0,0,0,.2,3.35,4.59,4.59,0,0,0,.79,2.05,3.28,3.28,0,0,0,2.19.88c1.59,0.16,6.74.21,6.74,0.21s4.16,0,6.94-.21a2.78,2.78,0,0,0,2-.88,4.6,4.6,0,0,0,.79-2.05,32.45,32.45,0,0,0,.2-3.35V23.75a32.47,32.47,0,0,0-.2-3.35m-6.4,3.92-5.35,2.89V21.41l2.41,1.31Z" transform="translate(-763.02 -17.27)"/>
</svg>
