<svg id="Layer_1" data-name="Layer 1" xmlns="http://www.w3.org/2000/svg" viewBox="0 0 19.04 15.53">
  <defs>
    <style>
      .cls-1 {
        fill: #41558c;
      }
    </style>
  </defs>
  <title>icon-tw</title>
  <path class="cls-1" d="M602.47,30.37a8,8,0,0,0,5.76-1.63A3.94,3.94,0,0,1,604.57,26a4,4,0,0,0,1.74-.07,3.94,3.94,0,0,1-2.26-1.39,3.84,3.84,0,0,1-.86-2.48c0.29,0.11.56,0.23,0.84,0.31a4.91,4.91,0,0,0,.88.14,4,4,0,0,1-1.66-2.82,3.8,3.8,0,0,1,.5-2.4,11.23,11.23,0,0,0,8.07,4.09c0-.25-0.05-0.48-0.07-0.72a3.69,3.69,0,0,1,.67-2.4,3.81,3.81,0,0,1,3-1.7,3.76,3.76,0,0,1,2.89,1.05,0.42,0.42,0,0,0,.45.12,8.12,8.12,0,0,0,2-.79l0.19-.1A4.05,4.05,0,0,1,619.39,19a8.34,8.34,0,0,0,2.13-.54l-0.2.28L621.1,19a7.89,7.89,0,0,1-1.38,1.31,0.26,0.26,0,0,0-.12.25,11.31,11.31,0,0,1-1.48,5.92,10.91,10.91,0,0,1-2.89,3.37,10.41,10.41,0,0,1-4.1,1.94A11.68,11.68,0,0,1,607,32a11.08,11.08,0,0,1-4.46-1.6l-0.07-.06" transform="translate(-602.47 -16.59)"/>
</svg>
