<svg id="Layer_1" data-name="Layer 1" xmlns="http://www.w3.org/2000/svg" viewBox="0 0 45.12 49.34">
  <defs>
    <style>
      .cls-1 {
        fill: none;
        stroke: #29bf00;
        stroke-miterlimit: 10;
        stroke-width: 2px;
      }

      .cls-2 {
        fill: #29bf00;
      }

      .cls-3 {
        fill: #fff;
      }
    </style>
  </defs>
  <title>icon-xls</title>
  <g>
    <path class="cls-1" d="M96.63,668.76H83.9V656m0,0L61.29,656V703.3H96.63V668.76Z" transform="translate(-60.29 -654.97)"/>
    <rect class="cls-2" x="17.37" y="25.17" width="27.75" height="13.42"/>
    <g>
      <path class="cls-3" d="M85.34,683.19h2.39v0.3l-0.37.14-0.41.12-1.83,2.81,2.13,3.34a3.18,3.18,0,0,1,.85.25v0.3H85.34v-0.3a2.6,2.6,0,0,1,.79-0.25l-1.64-2.61-1.58,2.62L83.33,690a1.42,1.42,0,0,1,.4.16v0.3h-2.4v-0.3a1.91,1.91,0,0,1,.39-0.16l0.38-.09,2-3.1-2-3.05-0.41-.12-0.41-.14v-0.3h2.75v0.3l-0.35.13-0.44.14,1.45,2.35,1.41-2.35a6.14,6.14,0,0,1-.86-0.26v-0.3Z" transform="translate(-60.29 -654.97)"/>
      <path class="cls-3" d="M89.53,683.19h2.84v0.3l-0.5.16a3.65,3.65,0,0,1-.5.1v6.17h2.39l0.61-1.67h0.27c0,0.15,0,.31.06,0.5s0,0.39,0,.59,0,0.4,0,.6,0,0.37,0,.52H89.53v-0.3A2.63,2.63,0,0,1,90,690l0.4-.08v-6.16a3.6,3.6,0,0,1-.46-0.11,3,3,0,0,1-.39-0.15v-0.3Z" transform="translate(-60.29 -654.97)"/>
      <path class="cls-3" d="M97.53,689.74a1.06,1.06,0,0,0,.32.21,1.51,1.51,0,0,0,.59.09,2.13,2.13,0,0,0,.62-0.09,1.49,1.49,0,0,0,.5-0.26,1.26,1.26,0,0,0,.34-0.42,1.2,1.2,0,0,0,.12-0.56,1,1,0,0,0-.25-0.69,2.63,2.63,0,0,0-.63-0.5c-0.25-.15-0.53-0.29-0.83-0.43a4.47,4.47,0,0,1-.82-0.49,2.6,2.6,0,0,1-.63-0.69,1.84,1.84,0,0,1-.25-1,1.88,1.88,0,0,1,.15-0.78,1.64,1.64,0,0,1,.44-0.58,2,2,0,0,1,.68-0.37,2.79,2.79,0,0,1,.88-0.13,6.27,6.27,0,0,1,1.16.1,3.42,3.42,0,0,1,.82.24,3.62,3.62,0,0,1,0,.41c0,0.16,0,.32-0.06.48s-0.05.33-.08,0.48-0.06.29-.08,0.41h-0.27l-0.42-1.42a1.9,1.9,0,0,0-.48-0.12,4.28,4.28,0,0,0-.61,0,1.23,1.23,0,0,0-.86.3,1.06,1.06,0,0,0-.32.83,1,1,0,0,0,.26.72,2.6,2.6,0,0,0,.64.52c0.26,0.15.53,0.3,0.83,0.44a5.47,5.47,0,0,1,.83.49,2.62,2.62,0,0,1,.64.67,1.68,1.68,0,0,1,.26,1,2.07,2.07,0,0,1-.17.85,1.79,1.79,0,0,1-.49.65,2.23,2.23,0,0,1-.79.42,3.56,3.56,0,0,1-1.06.15,4.11,4.11,0,0,1-1.17-.16,2.26,2.26,0,0,1-.74-0.33c0-.12,0-0.26,0-0.43s0-.34.06-0.51,0-.35.08-0.52,0.05-.31.08-0.42H97.1Z" transform="translate(-60.29 -654.97)"/>
    </g>
  </g>
</svg>
