<svg id="Layer_1" data-name="Layer 1" xmlns="http://www.w3.org/2000/svg" viewBox="0 0 25.09 15.95">
  <defs>
    <style>
      .cls-1 {
        fill: #41558c;
      }
    </style>
  </defs>
  <title>icon-google</title>
  <g>
    <path class="cls-1" d="M728.48,23.45h7.24a0.25,0.25,0,0,1,.31.26,8.52,8.52,0,0,1-1.2,6.15,6.91,6.91,0,0,1-4.82,3,8,8,0,0,1-9.42-6.79,8,8,0,0,1,8.56-9,7.53,7.53,0,0,1,4.6,2l0,0v0l-2.29,2.3-0.07,0a4.54,4.54,0,0,0-6.65.74,4.75,4.75,0,0,0,2.67,7.5,4.37,4.37,0,0,0,4.41-1.27,3.52,3.52,0,0,0,.84-1.73h-4a0.21,0.21,0,0,1-.26-0.26c0-.92,0-1.83,0-2.75,0-.06,0-0.12,0-0.21" transform="translate(-720.5 -17.09)"/>
    <path class="cls-1" d="M742.8,25.66v2.79h-0.9c-0.29,0-.58,0-0.87,0a0.19,0.19,0,0,1-.24-0.24c0-.76,0-1.52,0-2.28V25.67H738v-2h2.75c0-.11,0-0.2,0-0.29,0-.76,0-1.52,0-2.28a0.19,0.19,0,0,1,.23-0.23h1.79v2.77h2.47c0.33,0,.32,0,0.32.32,0,0.48,0,1,0,1.43v0.26H742.8Z" transform="translate(-720.5 -17.09)"/>
  </g>
</svg>
