<svg id="Layer_1" data-name="Layer 1" xmlns="http://www.w3.org/2000/svg" viewBox="0 0 99.35 37.35">
  <defs>
    <style>
      .cls-1 {
        fill: #fff;
      }

      .cls-2 {
        fill: #1d1d1b;
      }
    </style>
  </defs>
  <title>GS-logo</title>
  <g>
    <polygon class="cls-1" points="0 37.35 99.35 37.35 99.35 0 0 0 0 37.35 0 37.35"/>
    <path class="cls-2" d="M279.15,397.69v-0.47H275v0.47h0.68c0.42,0,.53.12,0.53,0.76v0.9a1.19,1.19,0,0,1-1.18,1.38c-1.3,0-2.28-1-2.28-3.83,0-3.33.91-4.08,2.17-4.08,0.79,0,2,.49,2.47,2.94h0.48l-0.18-3.41h-0.43l-0.34,1a2.85,2.85,0,0,0-2.18-1c-2.46,0-4.06,1.87-4.06,4.66s1.85,4.35,4,4.35a3.08,3.08,0,0,0,2.41-1.25l0.62,1.27h0.47v-2.93c0-.64.11-0.76,0.53-0.76h0.43Zm11.74,1.68h-0.47c-0.06.86-.22,1.09-0.51,1.09s-0.35-.82-0.59-1.7a2.34,2.34,0,0,0-1.93-1.87c1.66-.14,2.64-1,2.64-2.14,0-1.53-1.27-2.24-3.11-2.24h-4.66V393h0.49c0.42,0,.62.12,0.62,0.76v6.22c0,0.64-.2.76-0.62,0.76h-0.49v0.47h4.24v-0.47H286c-0.42,0-.62-0.12-0.62-0.76V397h0.71c1.09,0,1.31,1.27,1.53,2.65a1.56,1.56,0,0,0,1.7,1.6c0.95,0,1.46-.42,1.56-1.92h0Zm-4.26-6.4c0.9,0,1.39.73,1.39,1.78a1.56,1.56,0,0,1-1.57,1.82h-1.06v-2.84c0-.64.2-0.76,0.62-0.76h0.61Zm15.8,3.87c0-2.51-1.45-4.5-4.2-4.5s-4.19,2-4.19,4.5,1.44,4.51,4.19,4.51,4.2-2,4.2-4.51h0Zm-2.06,0c0,2.42-.64,4-2.14,4s-2.12-1.61-2.12-4,0.64-4,2.12-4,2.14,1.61,2.14,4h0Zm16.94,4.33v-0.47h-0.5c-0.42,0-.61-0.12-0.61-0.76v-6.21c0-.62.19-0.77,0.61-0.77h0.5v-0.47h-3.65l-2.1,5.54-2.09-5.54h-3.72V393h0.49c0.42,0,.62.12,0.62,0.76v6a0.76,0.76,0,0,1-.71.94h-0.41v0.47h2.84v-0.47h-0.41a0.76,0.76,0,0,1-.71-0.94V393h0l3.07,8.2h0.46l3.07-8.2h0.07v7c0,0.64-.19.76-0.62,0.76h-0.5v0.47h4.24Zm11.76-4.33c0-2.51-1.45-4.5-4.2-4.5s-4.19,2-4.19,4.5,1.44,4.51,4.19,4.51,4.2-2,4.2-4.51h0Zm-2.06,0c0,2.42-.64,4-2.14,4s-2.12-1.61-2.12-4,0.64-4,2.12-4,2.14,1.61,2.14,4h0ZM341.12,393v-0.47h-2.81V393h0.46c0.41,0,.6.18,0.6,0.4a1.84,1.84,0,0,1-.16.65l-2,5.18-2.12-5.47a1.32,1.32,0,0,1-.11-0.5c0-.17.14-0.25,0.44-0.25H336v-0.47h-4V393h0.16a0.92,0.92,0,0,1,.9.76l3,7.62h0.89l2.87-7.33a1.24,1.24,0,0,1,1.15-1h0.16Z" transform="translate(-256 -378)"/>
  </g>
</svg>
