<svg id="Layer_1" data-name="Layer 1" xmlns="http://www.w3.org/2000/svg" viewBox="0 0 45.12 49.34">
  <defs>
    <style>
      .cls-1 {
        fill: none;
        stroke: #41558c;
        stroke-miterlimit: 10;
        stroke-width: 2px;
      }

      .cls-2 {
        fill: #41558c;
      }

      .cls-3 {
        fill: #fff;
      }
    </style>
  </defs>
  <title>icon-doc</title>
  <g>
    <path class="cls-1" d="M496.33,2548.39H483.61v-12.72m0,0L461,2535.6v47.33h35.33v-34.54Z" transform="translate(-460 -2534.59)"/>
    <rect class="cls-2" x="17.37" y="25.17" width="27.75" height="13.42"/>
    <g>
      <path class="cls-3" d="M482.14,2563.27h-0.52a2.22,2.22,0,0,0-.4,0v6.29l0.19,0h0.79a2.52,2.52,0,0,0,1.21-.27,2.33,2.33,0,0,0,.81-0.72,3.08,3.08,0,0,0,.46-1,5.21,5.21,0,0,0,.14-1.25,4.2,4.2,0,0,0-.14-1.05,3,3,0,0,0-.46-1,2.49,2.49,0,0,0-.84-0.74,2.57,2.57,0,0,0-1.27-.29m-2.7,6.81v-0.3a3.39,3.39,0,0,1,.85-0.25v-6.16l-0.46-.12-0.39-.14v-0.3h1.47l0.49,0,0.49,0,0.39,0a3.68,3.68,0,0,1,2.71.95,3.61,3.61,0,0,1,1,2.68,4.76,4.76,0,0,1-.23,1.52,3.22,3.22,0,0,1-.71,1.21,3.29,3.29,0,0,1-1.21.8,4.67,4.67,0,0,1-1.73.29l-0.35,0-0.42,0-0.44,0-0.42,0h-1Z" transform="translate(-460 -2534.59)"/>
      <path class="cls-3" d="M489.19,2566.45a5.34,5.34,0,0,0,.14,1.25,3.31,3.31,0,0,0,.42,1,2.13,2.13,0,0,0,.71.69,1.92,1.92,0,0,0,1,.26,1.67,1.67,0,0,0,.92-0.26,2,2,0,0,0,.65-0.69,3.51,3.51,0,0,0,.38-1,5.75,5.75,0,0,0,.13-1.25,5.57,5.57,0,0,0-.14-1.25,3.2,3.2,0,0,0-.42-1,2.15,2.15,0,0,0-.71-0.69,1.94,1.94,0,0,0-1-.25,1.78,1.78,0,0,0-1,.25,2,2,0,0,0-.65.69,3.33,3.33,0,0,0-.36,1,6.47,6.47,0,0,0-.12,1.25m-1.11,0a4.81,4.81,0,0,1,.22-1.5,3.54,3.54,0,0,1,.64-1.19,2.92,2.92,0,0,1,1-.78,3.6,3.6,0,0,1,2.78,0,2.91,2.91,0,0,1,1,.78,3.54,3.54,0,0,1,.64,1.19,5.13,5.13,0,0,1,0,3,3.54,3.54,0,0,1-.64,1.19,2.91,2.91,0,0,1-1,.78,3.6,3.6,0,0,1-2.78,0,2.92,2.92,0,0,1-1-.78,3.54,3.54,0,0,1-.64-1.19,4.81,4.81,0,0,1-.22-1.5" transform="translate(-460 -2534.59)"/>
      <path class="cls-3" d="M501.93,2568.2h0.27c0,0.19.07,0.44,0.09,0.73a6,6,0,0,1,0,.86,1.31,1.31,0,0,1-.37.2,3.45,3.45,0,0,1-.46.13,4.13,4.13,0,0,1-.5.07l-0.48,0a5,5,0,0,1-1.56-.22,2.93,2.93,0,0,1-1.16-.68,3,3,0,0,1-.73-1.17,5,5,0,0,1-.25-1.69,4.74,4.74,0,0,1,.28-1.73,3.19,3.19,0,0,1,.76-1.16,2.94,2.94,0,0,1,1.11-.66,4.22,4.22,0,0,1,1.33-.21,6.24,6.24,0,0,1,1.15.09,3.08,3.08,0,0,1,.82.26c0,0.11,0,.24,0,0.39s0,0.31,0,.47,0,0.33-.05.49,0,0.3-.06.44h-0.27l-0.54-1.5a1,1,0,0,0-.38-0.08l-0.52,0a2.53,2.53,0,0,0-1,.19,2.16,2.16,0,0,0-.81.59,3,3,0,0,0-.55,1,4.49,4.49,0,0,0-.21,1.43,4.44,4.44,0,0,0,.19,1.33,2.89,2.89,0,0,0,.54,1,2.32,2.32,0,0,0,.86.64,2.83,2.83,0,0,0,1.15.22,2.65,2.65,0,0,0,.57-0.05,0.58,0.58,0,0,0,.3-0.14Z" transform="translate(-460 -2534.59)"/>
    </g>
  </g>
</svg>
