<svg id="Layer_1" data-name="Layer 1" xmlns="http://www.w3.org/2000/svg" viewBox="0 0 18.64 20.28">
  <defs>
    <style>
      .cls-1 {
        fill: #41558c;
      }
    </style>
  </defs>
  <title>icon-smile</title>
  <path class="cls-1" d="M810.69,24.7c-1.19,0-2.38,0-3.57,0a0.56,0.56,0,0,0-.66.77,4.3,4.3,0,0,0,8.45,0c0.08-.55-0.08-0.79-0.65-0.78-1.19,0-2.38,0-3.57,0m-5.17,8.84a2.19,2.19,0,0,0-1-2.17,9.21,9.21,0,0,1-1.7-12,9.31,9.31,0,1,1,6.72,14.25A2,2,0,0,0,808,34c-0.54.4-1.1,0.76-1.67,1.12s-0.8.29-.83-0.47c0-.05,0-0.1,0-0.15v-1" transform="translate(-801.36 -15.1)"/>
</svg>
