<svg id="Layer_1" data-name="Layer 1" xmlns="http://www.w3.org/2000/svg" viewBox="0 0 16.54 16.54">
  <defs>
    <style>
      .cls-1 {
        fill: #41558c;
      }
    </style>
  </defs>
  <title>icon-insta</title>
  <path class="cls-1" d="M546.67,21l0,0a1,1,0,0,1-.53.34,1,1,0,0,1-1.21-.7,1.21,1.21,0,0,1,0-.3,1.05,1.05,0,0,1,.21-0.57,1,1,0,0,1,.48-0.33,1,1,0,0,1,1,.22l0,0a1,1,0,0,1,.26.52,1,1,0,0,1-.16.74m-1.08,4.75a4.22,4.22,0,0,1-.32.94l0,0a4.58,4.58,0,0,1-.52.8,4.29,4.29,0,0,1-.63.62l0,0c-0.22.14-.43,0.29-0.65,0.42a4,4,0,0,1-1.46.46l-0.36,0c-0.24,0-.47,0-0.71,0a4.13,4.13,0,0,1-2.08-.88,4.24,4.24,0,0,1-.94-1l-0.07-.1,0-.08a4.21,4.21,0,0,1-.55-2s0,0,0,0a4.7,4.7,0,0,1,.08-0.85,4.24,4.24,0,0,1,.31-1v0l0.34-.59,0.1-.14,0.57-.63h0c0.19-.14.37-0.29,0.57-0.42a4,4,0,0,1,1.78-.62,4.2,4.2,0,0,1,3.3,1.06l0.14,0.13c0.14,0.17.3,0.33,0.43,0.5a4,4,0,0,1,.77,1.77c0,0.23,0,.46.07,0.69a4.42,4.42,0,0,1-.1,1M549.71,24s0,0,0-.06c0-.47,0-0.93,0-1.4,0-.19,0-0.39,0-0.58V21.85c0-.34,0-0.69-0.07-1a5.19,5.19,0,0,0-.33-1.37,4.47,4.47,0,0,0-.47-0.89,4.78,4.78,0,0,0-.59-0.67,4.2,4.2,0,0,0-.88-0.63l0,0a5.22,5.22,0,0,0-1.69-.51l-0.51-.06H545l-2-.05h-3.24l-1.15,0c-0.39,0-.79,0-1.18.07a7.18,7.18,0,0,0-.86.16,4,4,0,0,0-1,.36,6.18,6.18,0,0,0-.54.33,2.56,2.56,0,0,0-.26.2l-0.25.23a4.37,4.37,0,0,0-.73,1l-0.15,0,0.15,0c-0.09.21-.19,0.42-0.28,0.64s-0.11.35-.16,0.53a7.85,7.85,0,0,0-.15,1l0,0.92c0,0.28,0,.55,0,0.83s0,0.54,0,.82c0,0,0,.05,0,0.07v1.69c0,0.59,0,1.18,0,1.78,0,0.14,0,.27,0,0.4s0,0.52,0,.78,0,0.26,0,.38,0,0.16,0,.24v0c0,0.17.06,0.33,0.09,0.5a5.3,5.3,0,0,0,.27.84c0.09,0.18.18,0.37,0.29,0.55a4,4,0,0,0,.49.64l0,0c0.14,0.13.27,0.28,0.42,0.4s0.35,0.25.53,0.37l0.12,0.06a5,5,0,0,0,1.23.45,8.35,8.35,0,0,0,1.56.17l0.71,0h5l0.49,0,0.72,0A6.65,6.65,0,0,0,546,33c0.26-.06.51-0.14,0.77-0.22l0.05,0a3.65,3.65,0,0,0,.85-0.45c0.19-.14.36-0.29,0.55-0.44l0-.05a3.78,3.78,0,0,0,.64-0.8c0.11-.2.21-0.41,0.31-0.61l0-.05a5.48,5.48,0,0,0,.33-1.35c0-.18,0-0.36.05-0.55a0.26,0.26,0,0,1,0,0c0-.37,0-0.74,0-1.11s0-.78,0-1.17c0,0,0,0,0-.07V24s0,0,0-.06" transform="translate(-533.17 -16.62)"/>
</svg>
