<svg id="Layer_1" data-name="Layer 1" xmlns="http://www.w3.org/2000/svg" viewBox="0 0 10.87 18.58">
  <defs>
    <style>
      .cls-1 {
        fill: #41558c;
      }
    </style>
  </defs>
  <title>icon-ok</title>
  <g>
    <path class="cls-1" d="M579.26,21.8a2,2,0,0,0,2-2,2,2,0,0,0-2-2,2.05,2.05,0,0,0-2,2,2,2,0,0,0,2,2m0-6.91a4.92,4.92,0,1,1,0,9.84,4.92,4.92,0,1,1,0-9.84" transform="translate(-573.76 -14.89)"/>
    <path class="cls-1" d="M581.21,28.37c0.43,0.46.83,0.9,1.26,1.33s1,1,1.48,1.47a1.28,1.28,0,0,1,.19,1.43,1.34,1.34,0,0,1-1.16.86,1.48,1.48,0,0,1-1.21-.43c-0.8-.74-1.61-1.46-2.41-2.19a0.2,0.2,0,0,0-.33,0L576.63,33a1.44,1.44,0,1,1-2-2.07c0.85-.79,1.67-1.62,2.51-2.43a1.23,1.23,0,0,0,.1-0.14L577,28.3a8.52,8.52,0,0,1-2.56-1.05,1.43,1.43,0,0,1-.07-2.35,1.14,1.14,0,0,1,1.31-.13,7.44,7.44,0,0,0,3.9.89,7.67,7.67,0,0,0,3.15-.85,1.26,1.26,0,0,1,1.65.37,1.45,1.45,0,0,1,0,1.75,2.76,2.76,0,0,1-1.18.77c-0.57.23-1.17,0.41-1.76,0.61l-0.19.06" transform="translate(-573.76 -14.89)"/>
  </g>
</svg>
