<svg id="Layer_1" data-name="Layer 1" xmlns="http://www.w3.org/2000/svg" viewBox="0 0 20.4 17.8">
  <defs>
    <style>
      .cls-1 {
        fill: #41558c;
      }
    </style>
  </defs>
  <title>icon-tele</title>
  <path class="cls-1" d="M696.8,19.77c-0.23.23-.47,0.45-0.71,0.67q-3.36,3.12-6.71,6.23a2.06,2.06,0,0,0-.68,1.38c-0.05.52-.14,1-0.2,1.56a0.24,0.24,0,0,1-.22.26,0.26,0.26,0,0,1-.27-0.24l-0.7-2.45c-0.09-.31-0.18-0.61-0.26-0.92a0.93,0.93,0,0,1,.45-1.13l9-5.57a0.17,0.17,0,0,1,.07,0l0.24,0a0.49,0.49,0,0,1-.05.22m3.57-3.87-14.86,5.73-4.15,1.6a0.88,0.88,0,0,0-.54.39s0,0.4,0,.39a0.8,0.8,0,0,0,.53.41l4.3,1.6a0.46,0.46,0,0,1,.31.34q0.85,2.75,1.71,5.5a0.57,0.57,0,0,0,1,.31l2.4-2a0.84,0.84,0,0,1,1.23,0l4.49,3.26a0.57,0.57,0,0,0,1-.38q0.72-3.42,1.43-6.85l1.37-6.6,0.58-2.77a0.72,0.72,0,0,1,0-.11v-0.6a0.61,0.61,0,0,0-.87-0.22" transform="translate(-680.84 -15.81)"/>
</svg>
